<?xml version="1.0" standalone="no"?>
<!DOCTYPE svg PUBLIC "-//W3C//DTD SVG 20010904//EN"
 "http://www.w3.org/TR/2001/REC-SVG-20010904/DTD/svg10.dtd">
<svg version="1.0" xmlns="http://www.w3.org/2000/svg"
 width="558.000000pt" height="558.000000pt" viewBox="0 0 558.000000 558.000000"
 preserveAspectRatio="xMidYMid meet">
<metadata>
Created by potrace 1.11, written by Peter Selinger 2001-2013
</metadata>
<g transform="translate(0.000000,558.000000) scale(0.100000,-0.100000)"
fill="#000000" stroke="none">
<path d="M2587 5573 c-1 0 -33 -4 -72 -7 -38 -3 -79 -8 -90 -10 -11 -2 -42 -7
-68 -10 -27 -4 -59 -10 -70 -12 -12 -3 -34 -6 -48 -8 -110 -16 -409 -110 -558
-175 -100 -45 -221 -106 -286 -146 -22 -14 -47 -28 -55 -32 -46 -21 -255 -171
-365 -263 -77 -64 -290 -286 -365 -380 -200 -251 -359 -542 -458 -835 -108
-319 -147 -557 -147 -900 0 -174 7 -313 21 -390 2 -16 9 -57 15 -90 21 -132
96 -411 134 -500 6 -16 29 -70 50 -120 87 -210 231 -451 385 -645 87 -110 299
-328 385 -395 27 -22 56 -46 63 -53 8 -7 58 -44 113 -83 213 -152 470 -284
715 -368 67 -23 130 -44 140 -46 11 -2 64 -15 119 -28 105 -26 198 -43 281
-53 27 -3 60 -7 73 -9 13 -2 84 -7 159 -11 l136 -6 -95 98 c-214 223 -308 321
-344 359 -20 22 -110 117 -200 210 -90 94 -180 188 -200 210 -21 22 -115 121
-209 219 -94 98 -191 200 -216 226 -25 26 -118 123 -207 216 -88 93 -185 194
-213 224 -29 30 -130 135 -224 234 -94 98 -182 190 -195 205 -13 14 -112 118
-220 231 -108 113 -230 241 -271 285 -41 43 -82 85 -90 91 -8 7 -11 16 -6 21
18 18 629 644 717 735 52 53 229 234 394 403 165 169 332 340 370 379 39 40
219 225 401 412 182 186 366 375 409 419 42 44 149 153 237 243 l161 163 -102
-3 c-57 -2 -103 -4 -104 -5z"/>
<path d="M3719 5286 c-1409 -1417 -2479 -2498 -2479 -2503 0 -1 35 -38 78 -82
561 -571 898 -913 1042 -1060 96 -98 369 -376 607 -617 237 -242 519 -529 627
-639 l195 -199 38 13 c221 79 709 375 686 416 -5 7 -127 136 -273 285 -146
150 -294 303 -330 340 -36 36 -196 201 -356 366 -161 164 -323 331 -360 371
-38 39 -196 201 -350 360 -363 372 -464 477 -464 484 0 3 51 54 113 114 61 59
213 205 336 324 123 119 250 241 281 271 173 167 481 463 539 519 36 35 170
163 296 285 127 123 281 272 343 332 63 60 152 146 198 191 l85 81 -83 65
c-105 81 -207 149 -327 217 -99 56 -318 160 -337 160 -7 0 -54 -42 -105 -94z"/>
<path d="M5078 4361 c-1 -5 -124 -134 -273 -286 -148 -153 -276 -283 -283
-291 -10 -10 -4 -29 28 -100 22 -47 61 -146 85 -218 42 -122 52 -159 75 -276
5 -25 11 -55 14 -68 26 -122 27 -480 1 -596 -3 -12 -7 -32 -9 -46 -22 -127
-81 -324 -127 -425 -12 -27 -23 -52 -23 -55 -1 -3 -19 -41 -40 -84 l-39 -78
90 -91 c167 -171 430 -442 470 -485 22 -23 42 -42 45 -42 20 0 190 303 253
450 20 47 40 94 45 105 19 41 80 233 104 330 62 249 81 410 81 695 -1 228 -5
280 -41 493 -56 331 -220 745 -406 1020 -40 59 -44 63 -50 48z"/>
</g>
</svg>
